<svg width="15" height="15" viewBox="0 0 15 15" fill="none" xmlns="http://www.w3.org/2000/svg">
<path d="M7.34038 1.32658C9.28603 1.32658 9.55134 1.32658 10.3473 1.32658C11.0548 1.32658 11.4085 1.50345 11.6739 1.59189C12.0276 1.76877 12.2929 1.85721 12.5582 2.12252C12.8236 2.38784 13.0004 2.65315 13.0889 3.0069C13.1773 3.27222 13.2657 3.62597 13.3542 4.33348C13.3542 5.12942 13.3542 5.3063 13.3542 7.34038C13.3542 9.37446 13.3542 9.55134 13.3542 10.3473C13.3542 11.0548 13.1773 11.4085 13.0889 11.6739C12.912 12.0276 12.8236 12.2929 12.5582 12.5582C12.2929 12.8236 12.0276 13.0004 11.6739 13.0889C11.4085 13.1773 11.0548 13.2657 10.3473 13.3542C9.55134 13.3542 9.37446 13.3542 7.34038 13.3542C5.3063 13.3542 5.12942 13.3542 4.33348 13.3542C3.62597 13.3542 3.27222 13.1773 3.0069 13.0889C2.65315 12.912 2.38784 12.8236 2.12252 12.5582C1.85721 12.2929 1.68033 12.0276 1.59189 11.6739C1.50345 11.4085 1.41501 11.0548 1.32658 10.3473C1.32658 9.55134 1.32658 9.37446 1.32658 7.34038C1.32658 5.3063 1.32658 5.12942 1.32658 4.33348C1.32658 3.62597 1.50345 3.27222 1.59189 3.0069C1.76877 2.65315 1.85721 2.38784 2.12252 2.12252C2.38784 1.85721 2.65315 1.68033 3.0069 1.59189C3.27222 1.50345 3.62597 1.41501 4.33348 1.32658C5.12942 1.32658 5.39474 1.32658 7.34038 1.32658ZM7.34038 0C5.3063 0 5.12942 0 4.33348 0C3.53753 0 3.0069 0.176877 2.56471 0.353754C2.12252 0.53063 1.68033 0.795945 1.23814 1.23814C0.795945 1.68033 0.619069 2.03408 0.353754 2.56471C0.176877 3.0069 0.0884383 3.53753 0 4.33348C0 5.12942 0 5.39474 0 7.34038C0 9.37446 0 9.55134 0 10.3473C0 11.1432 0.176877 11.6739 0.353754 12.1161C0.53063 12.5582 0.795945 13.0004 1.23814 13.4426C1.68033 13.8848 2.03408 14.0617 2.56471 14.327C3.0069 14.5039 3.53753 14.5923 4.33348 14.6808C5.12942 14.6808 5.39474 14.6808 7.34038 14.6808C9.28603 14.6808 9.55134 14.6808 10.3473 14.6808C11.1432 14.6808 11.6739 14.5039 12.1161 14.327C12.5582 14.1501 13.0004 13.8848 13.4426 13.4426C13.8848 13.0004 14.0617 12.6467 14.327 12.1161C14.5039 11.6739 14.5923 11.1432 14.6808 10.3473C14.6808 9.55134 14.6808 9.28603 14.6808 7.34038C14.6808 5.39474 14.6808 5.12942 14.6808 4.33348C14.6808 3.53753 14.5039 3.0069 14.327 2.56471C14.1501 2.12252 13.8848 1.68033 13.4426 1.23814C13.0004 0.795945 12.6467 0.619069 12.1161 0.353754C11.6739 0.176877 11.1432 0.0884383 10.3473 0C9.55134 0 9.37446 0 7.34038 0Z" fill="white"/>
<path d="M7.34038 3.53753C5.21786 3.53753 3.53753 5.21786 3.53753 7.34038C3.53753 9.4629 5.21786 11.1432 7.34038 11.1432C9.4629 11.1432 11.1432 9.4629 11.1432 7.34038C11.1432 5.21786 9.4629 3.53753 7.34038 3.53753ZM7.34038 9.81665C6.01381 9.81665 4.86411 8.75539 4.86411 7.34038C4.86411 6.01381 5.92537 4.86411 7.34038 4.86411C8.66696 4.86411 9.81665 5.92537 9.81665 7.34038C9.81665 8.66696 8.66696 9.81665 7.34038 9.81665Z" fill="white"/>
<path d="M11.2317 4.33348C11.7201 4.33348 12.1161 3.93753 12.1161 3.4491C12.1161 2.96066 11.7201 2.56471 11.2317 2.56471C10.7432 2.56471 10.3473 2.96066 10.3473 3.4491C10.3473 3.93753 10.7432 4.33348 11.2317 4.33348Z" fill="white"/>
</svg>
