<svg width="15" height="15" viewBox="0 0 15 15" fill="none" xmlns="http://www.w3.org/2000/svg">
<g clip-path="url(#clip0_2525_25478)">
<path d="M0 1.62962C0 1.15726 0.165329 0.767566 0.495972 0.460545C0.826615 0.15351 1.25647 0 1.7855 0C2.30509 0 2.72548 0.151144 3.04668 0.45346C3.37733 0.765213 3.54265 1.17143 3.54265 1.67213C3.54265 2.12559 3.38206 2.50347 3.06085 2.80578C2.73021 3.11754 2.29564 3.27341 1.75716 3.27341H1.74299C1.22339 3.27341 0.803006 3.11754 0.481801 2.80578C0.160596 2.49403 0 2.10197 0 1.62962ZM0.184218 14.0289V4.56294H3.3301V14.0289H0.184218ZM5.07308 14.0289H8.21896V8.74327C8.21896 8.41261 8.25675 8.15754 8.33232 7.97806C8.46458 7.65685 8.66533 7.38525 8.93458 7.16325C9.20382 6.94124 9.54155 6.83024 9.94777 6.83024C11.0059 6.83024 11.5349 7.54349 11.5349 8.97V14.0289H14.6808V8.60157C14.6808 7.20339 14.3501 6.14296 13.6888 5.42026C13.0275 4.69756 12.1537 4.33621 11.0673 4.33621C9.84858 4.33621 8.89915 4.86052 8.21896 5.90915V5.93749H8.20479L8.21896 5.90915V4.56294H5.07308C5.09197 4.86524 5.10142 5.80522 5.10142 7.38289C5.10142 8.96055 5.09197 11.1759 5.07308 14.0289Z" fill="white"/>
</g>
<rect x="0.00286241" y="0.00286241" width="14.675" height="14.0232" stroke="white" stroke-width="0.00572482"/>
<defs>
<clipPath id="clip0_2525_25478">
<rect width="14.6808" height="14.0289" fill="white"/>
</clipPath>
</defs>
</svg>
