<svg width="18" height="14" viewBox="0 0 18 14" fill="none" xmlns="http://www.w3.org/2000/svg">
<path d="M5.35898 13.6321C11.7895 13.6321 15.3062 8.38795 15.3062 3.84066C15.3062 3.69167 15.3031 3.54344 15.2961 3.39578C15.9787 2.91007 16.5721 2.30379 17.0402 1.61395C16.4138 1.8879 15.7397 2.07238 15.0325 2.15556C15.7543 1.72956 16.3085 1.05536 16.57 0.251822C15.8944 0.646151 15.1463 0.932694 14.3501 1.08722C13.7119 0.418367 12.8033 0 11.7981 0C9.86715 0 8.30137 1.54126 8.30137 3.44099C8.30137 3.71113 8.33219 3.97363 8.39188 4.22564C5.48651 4.08199 2.91003 2.71242 1.18591 0.630317C0.885314 1.13873 0.712244 1.72975 0.712244 2.35987C0.712244 3.55374 1.32952 4.60776 2.26813 5.22454C1.69466 5.20718 1.15587 5.05189 0.684723 4.79396C0.683948 4.80827 0.683948 4.82277 0.683948 4.83784C0.683948 6.50463 1.88924 7.89613 3.48874 8.21148C3.19512 8.29027 2.88619 8.33263 2.56718 8.33263C2.34197 8.33263 2.12297 8.3105 1.90998 8.27062C2.35496 9.63771 3.64572 10.6328 5.17603 10.6608C3.97926 11.584 2.47183 12.134 0.833955 12.134C0.551965 12.134 0.273657 12.1182 0 12.0863C1.54717 13.0623 3.38427 13.6321 5.35898 13.6321Z" fill="white"/>
</svg>
