<svg width="670" height="1026" viewBox="0 0 670 1026" fill="none" xmlns="http://www.w3.org/2000/svg">
<path d="M-67.2698 577.547L-65.5716 574.066C-62.288 577.091 -59.243 579.833 -56.2881 582.444L-57.8886 586.009C-60.8835 583.355 -63.9516 580.598 -67.2698 577.547ZM-48.3445 594.144L-46.8617 590.477C-43.6766 593.114 -40.4505 595.684 -37.2943 598.141L-38.6419 601.923C-41.8436 599.415 -45.1097 596.802 -48.3322 594.134L-48.3445 594.144ZM-28.8051 609.27L-27.5847 605.4C-24.309 607.748 -21.0047 610.046 -17.746 612.212L-18.8161 616.185C-22.1147 613.977 -25.4741 611.649 -28.7929 609.261L-28.8051 609.27ZM-8.69113 622.625L-7.7746 618.551C-4.42303 620.609 -1.04656 622.552 2.29204 624.396L1.54115 628.561C-1.85266 626.686 -5.29533 624.688 -8.70032 622.633L-8.69113 622.625ZM11.8589 633.941L12.4261 629.693C15.8242 631.368 19.2666 632.967 22.6574 634.438L22.2558 638.777C18.833 637.291 15.3232 635.671 11.8759 633.961L11.8589 633.941ZM32.7311 643.01L32.9487 638.595C36.373 639.877 39.8391 641.072 43.2563 642.143L43.229 646.623C39.7645 645.549 36.2341 644.331 32.7481 643.03L32.7311 643.01ZM53.7267 649.593L53.5662 645.061C56.9822 645.923 60.4404 646.685 63.8494 647.33L64.2041 651.903C60.753 651.271 57.2274 650.489 53.7438 649.613L53.7267 649.593ZM74.6287 653.545L74.0675 648.947C77.4491 649.37 80.8643 649.686 84.2273 649.887L84.9654 654.513C81.5787 654.31 78.0865 653.995 74.6458 653.565L74.6287 653.545ZM95.1996 654.799L94.2719 650.169C97.5746 650.155 100.914 650.03 104.186 649.797L105.298 654.422C101.978 654.673 98.5901 654.816 95.211 654.81L95.1996 654.799ZM19.1078 499.607C16.7743 495.728 14.4841 491.801 12.3012 487.938L15.1865 485.964C17.3416 489.775 19.5982 493.648 21.9012 497.47L19.1078 499.607ZM26.1834 511.054L28.8839 508.781C31.2275 512.462 33.6702 516.193 36.1528 519.885L33.5391 522.298C31.058 518.564 28.5874 514.788 26.2126 511.064L26.1834 511.054ZM115.238 653.42L113.957 648.816C117.148 648.377 120.375 647.828 123.547 647.181L125.004 651.753C121.785 652.404 118.501 652.965 115.238 653.42ZM41.1321 533.291L43.6703 530.756C46.1702 534.298 48.7663 537.886 51.3792 541.42L48.9293 544.053C46.2968 540.488 43.6573 536.874 41.1444 533.281L41.1321 533.291ZM5.81579 476.08C3.69247 472.047 1.6269 467.975 -0.325684 463.974L2.74503 462.36C4.66709 466.303 6.69927 470.314 8.78952 474.279L5.81579 476.08ZM56.914 554.632L59.2819 551.888C61.9172 555.296 64.6397 558.748 67.3674 562.143L65.0789 564.986C62.3349 561.55 59.5839 558.066 56.914 554.632ZM-6.07605 451.631C-7.94237 447.46 -9.73312 443.249 -11.4081 439.115L-8.14555 437.929C-6.50646 441.99 -4.74268 446.128 -2.91502 450.221L-6.07605 451.631ZM73.4091 575.113L75.6269 572.177C78.3734 575.462 81.1987 578.779 84.0319 582.042L81.8823 585.058C79.0348 581.779 76.1869 578.434 73.4175 575.126L73.4091 575.113ZM-16.2623 426.421C-17.8073 422.135 -19.2708 417.812 -20.6068 413.569L-17.181 412.862C-15.8714 417.017 -14.4402 421.251 -12.9278 425.454L-16.2623 426.421ZM90.4876 594.796L92.566 591.701C95.3974 594.851 98.3187 598.057 101.237 601.191L99.2268 604.359C96.306 601.221 93.3672 598.008 90.5044 594.823L90.4876 594.796ZM-24.3611 400.625C-25.5241 396.272 -26.5759 391.876 -27.5191 387.59L-23.9373 387.482C-23.0264 391.679 -21.9914 395.965 -20.8515 400.223L-24.3611 400.625ZM108.105 613.771L110.052 610.538C112.959 613.566 115.959 616.641 118.952 619.661L117.068 622.966C114.041 619.899 111.026 616.808 108.096 613.758L108.105 613.771ZM134.578 649.488L132.974 644.952C136.031 644.12 139.128 643.174 142.181 642.136L143.94 646.628C140.831 647.672 137.675 648.617 134.57 649.474L134.578 649.488ZM126.13 631.974L127.954 628.616C130.944 631.551 134.005 634.503 137.038 637.41L135.283 640.842C132.21 637.885 129.132 634.913 126.121 631.961L126.13 631.974ZM-30.0095 374.536C-30.7306 370.174 -31.3381 365.789 -31.8126 361.494L-28.1201 362.008C-27.6566 366.196 -27.0658 370.473 -26.3615 374.727L-30.0095 374.536ZM144.532 649.497L146.242 646.028C149.278 648.837 152.394 651.678 155.508 654.48L153.852 658.001C150.707 655.156 147.572 652.297 144.515 649.47L144.532 649.497ZM163.247 666.337L164.845 662.768C167.944 665.48 171.111 668.219 174.262 670.904L172.718 674.518C169.534 671.793 166.35 669.04 163.233 666.315L163.247 666.337ZM-32.887 348.547L-32.9804 346.721C-33.1608 343.056 -33.2436 339.402 -33.2227 335.746L-29.4971 336.896C-29.5107 340.431 -29.4316 344.027 -29.2769 347.584C-29.2512 348.179 -29.2225 348.771 -29.1879 349.366L-32.887 348.547ZM153.073 643.235L151.175 638.792C154.091 637.606 157.052 636.302 159.951 634.919L161.982 639.303C159.02 640.682 156.026 642.006 153.059 643.213L153.073 643.235ZM182.249 682.542L183.74 678.882C186.891 681.499 190.1 684.13 193.287 686.711L191.845 690.407C188.629 687.795 185.4 685.146 182.235 682.52L182.249 682.542ZM-32.8038 323.222C-32.5534 319.126 -32.1744 315.001 -31.6858 310.958L-27.9969 312.705C-28.4702 316.655 -28.8397 320.684 -29.0866 324.683L-32.8038 323.222ZM201.504 698.139L202.898 694.401C206.079 696.913 209.33 699.45 212.568 701.929L211.223 705.709C207.946 703.173 204.672 700.614 201.482 698.103L201.504 698.139ZM170.677 634.981L168.595 630.624C170.748 629.54 173.663 628.05 177.15 626.164L179.295 630.483C175.759 632.355 172.82 633.851 170.654 634.945L170.677 634.981ZM220.971 713.134L222.267 709.325C225.486 711.745 228.771 714.181 232.024 716.567L230.763 720.429C227.488 717.979 224.186 715.53 220.949 713.097L220.971 713.134ZM-29.8748 299.033C-29.1699 295.156 -28.3488 291.26 -27.4215 287.461L-23.826 289.736C-24.7235 293.45 -25.5538 297.272 -26.2255 301.056L-29.8748 299.033ZM240.634 727.552L241.84 723.673C245.096 725.99 248.402 728.341 251.691 730.637L250.529 734.549C247.202 732.201 243.874 729.848 240.609 727.511L240.634 727.552ZM187.776 625.703L185.544 621.399C188.324 619.772 191.099 618.077 193.802 616.37L196.101 620.621C193.36 622.317 190.568 624.014 187.753 625.667L187.776 625.703ZM260.466 741.403L261.58 737.463C264.865 739.701 268.21 741.954 271.512 744.152L270.439 748.121C267.1 745.878 263.741 743.616 260.444 741.367L260.466 741.403ZM-24.38 276.258C-23.2584 272.656 -22.0194 269.008 -20.7176 265.506L-17.2605 268.243C-18.5541 271.685 -19.775 275.244 -20.8496 278.774L-24.38 276.258ZM280.414 754.681L281.444 750.679C284.747 752.829 288.113 754.99 291.445 757.104L290.459 761.132C287.125 758.999 283.745 756.83 280.426 754.671L280.414 754.681ZM204.252 615.225L201.885 611.028C204.564 609.199 207.232 607.311 209.815 605.409L212.252 609.55C209.65 611.467 206.957 613.375 204.255 615.223L204.252 615.225ZM-16.4957 255.179C-15.0105 251.848 -13.4133 248.536 -11.7431 245.334L-8.46657 248.473C-10.0989 251.61 -11.6671 254.859 -13.1261 258.121L-16.4957 255.179ZM300.542 767.423L301.487 763.374C304.82 765.446 308.187 767.491 311.554 769.536L310.66 773.632C307.29 771.589 303.878 769.493 300.542 767.423ZM320.782 779.662L321.658 775.581C324.995 777.548 328.396 779.532 331.764 781.475L330.943 785.6C327.555 783.653 324.148 781.661 320.782 779.662ZM220.077 603.562L217.558 599.487L218.45 598.775C220.709 596.969 222.953 595.116 225.122 593.261L227.708 597.283C225.517 599.155 223.25 601.028 220.969 602.85L220.077 603.562ZM-6.48071 235.982C-4.66011 232.965 -2.73414 229.986 -0.750187 227.122L2.31789 230.61C0.371594 233.416 -1.52255 236.337 -3.30855 239.299L-6.48071 235.982ZM232.499 586.732C234.928 584.493 237.333 582.193 239.638 579.878L242.386 583.77C240.051 586.103 237.624 588.434 235.167 590.702L232.499 586.732ZM5.4355 218.784C7.55788 216.108 9.78507 213.483 12.0553 210.979L14.8875 214.757C12.6575 217.215 10.4735 219.792 8.39136 222.423L5.4355 218.784ZM246.546 572.709C248.82 570.249 251.053 567.714 253.194 565.185L256.091 568.891C253.925 571.453 251.662 574.019 249.365 576.51L246.546 572.709ZM19.0929 203.747C21.4926 201.43 23.9824 199.164 26.5223 197.067L29.0901 201.103C26.61 203.186 24.1551 205.391 21.7984 207.666L19.0929 203.747ZM259.576 557.313C261.66 554.619 263.7 551.846 265.645 549.082L268.713 552.57C266.746 555.379 264.675 558.183 262.566 560.917L259.576 557.313ZM36.761 195.117L34.3367 190.966C36.9977 189.043 39.7445 187.207 42.5073 185.5L44.7851 189.768C42.0566 191.427 39.3613 193.235 36.761 195.117ZM271.367 540.452C273.23 537.502 275.039 534.481 276.756 531.459L279.978 534.695C278.248 537.755 276.414 540.823 274.512 543.797L271.367 540.452ZM53.1104 185.017L51.0075 180.67C53.9018 179.176 56.8756 177.781 59.8473 176.523L61.7688 180.968C58.8727 182.186 55.9613 183.578 53.116 185.026L53.1104 185.017ZM281.748 522.106C283.35 518.905 284.887 515.627 286.322 512.363L289.705 515.282C288.246 518.605 286.684 521.944 285.053 525.195L281.748 522.106ZM70.7559 177.576L69.0143 173.075C72.114 172.046 75.2895 171.133 78.4507 170.366L79.9977 174.92C76.8929 175.682 73.7836 176.57 70.7467 177.583L70.7559 177.576ZM290.437 502.217C291.734 498.759 292.957 495.225 294.067 491.7L297.588 494.245C296.466 497.847 295.214 501.438 293.891 504.957L290.437 502.217ZM89.4935 173.022L88.1584 168.427C91.4411 167.908 94.784 167.524 98.0979 167.284L99.2095 171.909C95.9549 172.149 92.6781 172.507 89.4812 173.032L89.4935 173.022ZM297.185 480.835C298.135 477.14 298.997 473.361 299.748 469.602L303.385 471.708C302.616 475.542 301.747 479.389 300.767 483.161L297.185 480.835ZM109.121 171.614L108.244 166.984C111.657 167.024 115.127 167.214 118.551 167.543L119.183 172.159C115.827 171.844 112.442 171.659 109.106 171.619L109.121 171.614ZM301.755 458.068C302.318 454.168 302.802 450.169 303.148 446.213L306.857 447.822C306.487 451.872 306.006 455.943 305.431 459.927L301.755 458.068ZM129.383 173.601L129.005 169.026C130.077 169.218 131.172 169.432 132.246 169.657C134.652 170.156 137.1 170.743 139.525 171.39L139.636 175.908C137.275 175.278 134.889 174.708 132.544 174.221C131.465 173.987 130.402 173.781 129.357 173.588L129.383 173.601ZM303.937 434.103C304.098 430.045 304.154 425.894 304.118 421.783L307.849 422.861C307.893 427.08 307.836 431.32 307.67 435.464L303.937 434.103ZM149.912 179.096L150.059 174.656C153.551 175.877 157.075 177.276 160.565 178.797L160.163 183.136C156.735 181.64 153.284 180.278 149.886 179.083L149.912 179.096ZM303.658 409.224C303.411 405.025 303.062 400.771 302.617 396.575L306.314 397.118C306.768 401.402 307.125 405.75 307.375 410.036L303.658 409.224ZM170.314 187.98L170.966 183.758C174.396 185.537 177.864 187.48 181.266 189.531L180.379 193.622C177.046 191.611 173.662 189.715 170.314 187.98ZM300.959 383.849C300.308 379.601 299.549 375.303 298.696 371.074L302.304 371.052C303.175 375.376 303.954 379.766 304.608 384.093L300.959 383.849ZM190.269 199.993L191.4 196.059C194.725 198.347 198.066 200.786 201.329 203.313L199.981 207.095C196.794 204.602 193.496 202.218 190.269 199.993ZM295.816 358.304C294.755 354.065 293.578 349.783 292.3 345.555L295.767 344.957C297.056 349.257 298.26 353.632 299.343 357.968L295.816 358.304ZM209.421 214.84L211 211.232C214.16 213.969 217.325 216.853 220.401 219.8L218.62 223.198C215.615 220.329 212.525 217.508 209.431 214.833L209.421 214.84ZM288.213 332.958C286.753 328.794 285.175 324.603 283.508 320.482L286.77 319.303C288.455 323.504 290.077 327.789 291.572 332.053L288.213 332.958ZM227.498 232.19L229.482 228.995C232.439 232.14 235.375 235.415 238.209 238.738L236.031 241.716C233.26 238.464 230.386 235.261 227.498 232.19ZM278.255 308.249C276.416 304.226 274.458 300.189 272.438 296.256L275.448 294.528C277.515 298.551 279.519 302.679 281.399 306.799L278.255 308.249ZM244.187 251.759L246.552 249.01C249.252 252.501 251.921 256.118 254.477 259.758L251.93 262.28C249.44 258.709 246.834 255.171 244.187 251.759ZM266.092 284.564C263.899 280.736 261.601 276.923 259.25 273.221L261.956 270.958C264.361 274.739 266.714 278.656 268.957 282.559L266.092 284.564Z" fill="#004F4C"/>
</svg>
