<svg width="12" height="19" viewBox="0 0 12 19" fill="none" xmlns="http://www.w3.org/2000/svg">
<path d="M10.38 8.02812C11.2317 7.1764 11.7581 6.00158 11.7581 4.70258C11.7581 2.10566 9.65242 0 7.05441 0H0V14.1088C0 16.7057 2.10566 18.8125 4.70367 18.8125C7.30059 18.8125 9.40625 16.7068 9.40625 14.1088C9.40625 11.5108 7.30059 9.40625 4.70367 9.40625H7.05441C8.35342 9.40625 9.52934 8.87983 10.38 8.02812ZM6.00378 6.99726L5.5499 5.48835L5.48945 5.28614C5.47077 5.2224 5.42022 5.17184 5.35538 5.15206L4.70367 4.95644L3.85855 4.70258L3.64535 4.63883C3.55413 4.61136 3.50578 4.53443 3.50358 4.4553C3.50358 4.4553 3.50358 4.4553 3.50358 4.4542C3.50248 4.42893 3.50578 4.40475 3.51347 4.38057C3.53215 4.32562 3.57281 4.27837 3.63985 4.25639L6.25215 3.38599L7.37971 3.01013C7.53687 2.95848 7.68523 3.10684 7.63248 3.2629L7.15332 4.70258L6.38623 7.00276C6.32249 7.18849 6.05983 7.18409 6.00378 6.99726Z" fill="#00B4AC"/>
</svg>
