<svg width="794" height="748" viewBox="0 0 794 748" fill="none" xmlns="http://www.w3.org/2000/svg">
<path d="M199.392 594.293L195.431 589.539L113.274 570.882L77.2975 582.386L87.898 607.716L199.392 594.293Z" fill="#F3F3F3"/>
<path d="M199.402 594.29L197.224 600.081L125.763 644.705L88.0046 645.665L89.6908 618.258L199.402 594.29Z" fill="#F3F3F3"/>
<path d="M92.6141 612.339L87.8828 607.715L199.377 594.292L92.6141 612.339Z" fill="#EBF2F6"/>
<path d="M92.6291 612.338L89.6803 618.259L199.392 594.291L92.6291 612.338Z" fill="#666666"/>
<path d="M369.642 565.513L365.681 560.76L283.524 542.103L247.547 553.607L258.148 578.937L369.642 565.513Z" fill="#F3F3F3"/>
<path d="M369.645 565.51L367.466 571.302L296.006 615.926L258.247 616.885L259.933 589.479L369.645 565.51Z" fill="#F3F3F3"/>
<path d="M262.872 583.555L258.141 578.932L369.635 565.509L262.872 583.555Z" fill="#EBF2F6"/>
<path d="M262.871 583.558L259.922 589.48L369.634 565.512L262.871 583.558Z" fill="#666666"/>
<path d="M298.392 546.515L297.794 543.161C301.995 543.232 305.856 543.256 309.575 543.246L310.295 546.599C306.522 546.605 302.634 546.584 298.392 546.515ZM322.146 546.366L321.278 543.015C325.19 542.884 329.097 542.685 332.887 542.451L333.922 545.799C330.068 546.025 326.107 546.22 322.15 546.352L322.146 546.366ZM345.566 544.861L344.384 541.53C348.207 541.151 352.025 540.722 355.735 540.23L357.089 543.541C353.325 544.027 349.448 544.469 345.57 544.847L345.566 544.861ZM368.458 541.821L366.929 538.535C370.651 537.915 374.33 537.204 377.925 536.449L379.632 539.698C375.977 540.465 372.217 541.179 368.455 541.831L368.458 541.821ZM390.566 537.15L388.672 533.955C392.22 533.051 395.761 532.07 399.192 531.033L401.264 534.19C397.8 535.235 394.196 536.244 390.591 537.153L390.566 537.15ZM411.691 530.776L409.434 527.678C412.787 526.494 416.124 525.227 419.355 523.905L421.794 526.933C418.525 528.281 415.126 529.571 411.715 530.78L411.691 530.776ZM431.545 522.658L428.931 519.707C432.047 518.246 435.14 516.691 438.131 515.088L440.917 517.951C437.901 519.588 434.745 521.169 431.569 522.661L431.545 522.658ZM449.881 512.826L446.922 510.07C449.77 508.335 452.585 506.506 455.296 504.632L458.408 507.301C455.677 509.188 452.803 511.063 449.906 512.829L449.881 512.826ZM466.48 501.379L463.22 498.82C465.766 496.838 468.28 494.759 470.683 492.647L474.083 495.092C471.653 497.245 469.112 499.364 466.495 501.379L466.48 501.379ZM322.389 442.512C318.454 441.299 314.526 440.028 310.716 438.734L311.863 435.684C315.623 436.958 319.495 438.213 323.376 439.407L322.389 442.512ZM334.149 445.98L334.989 442.839C338.824 443.914 342.762 444.962 346.71 445.961L346.014 449.144C342.044 448.117 338.059 447.054 334.177 445.97L334.149 445.98ZM481.221 488.48L477.701 486.15C479.928 483.949 482.122 481.651 484.22 479.321L487.858 481.524C485.726 483.885 483.494 486.224 481.221 488.48ZM357.924 451.998L358.495 448.777C362.374 449.665 366.353 450.526 370.314 451.34L369.866 454.574C365.872 453.75 361.846 452.898 357.928 451.984L357.924 451.998ZM299.187 434.638C295.329 433.195 291.495 431.692 287.788 430.169L289.276 427.249C292.928 428.752 296.703 430.234 300.497 431.65L299.187 434.638ZM381.852 456.916L382.176 453.656C386.086 454.372 390.088 455.067 394.062 455.719L393.854 458.998C389.845 458.327 385.803 457.629 381.852 456.916ZM276.56 425.307C272.826 423.618 269.128 421.857 265.562 420.079L267.434 417.332C270.932 419.083 274.569 420.811 278.231 422.471L276.56 425.307ZM405.859 460.828L405.962 457.53C409.89 458.097 413.897 458.639 417.88 459.14L417.875 462.452C413.872 461.949 409.831 461.401 405.873 460.833L405.859 460.828ZM254.835 414.445C251.287 412.487 247.78 410.455 244.417 408.402L246.677 405.879C249.973 407.89 253.405 409.881 256.884 411.803L254.835 414.445ZM429.879 463.857L429.786 460.535C433.706 460.96 437.726 461.37 441.705 461.734L441.891 465.064C437.908 464.699 433.87 464.296 429.907 463.865L429.879 463.857ZM234.403 401.943C231.113 399.711 227.885 397.385 224.801 395.067L227.512 392.854C230.522 395.131 233.677 397.394 236.897 399.575L234.403 401.943ZM453.927 466.087L453.657 462.75C457.568 463.049 461.578 463.324 465.551 463.566L465.909 466.914C461.883 466.66 457.854 466.383 453.913 466.083L453.927 466.087ZM494.019 474.281L490.287 472.19C492.195 469.804 494.07 467.318 495.861 464.796L499.689 466.765C497.858 469.324 495.936 471.845 494.005 474.277L494.019 474.281ZM477.865 467.555L477.432 464.208C481.356 464.394 485.345 464.55 489.288 464.692L489.815 468.048C485.815 467.896 481.801 467.737 477.852 467.551L477.865 467.555ZM215.705 387.779C212.752 385.278 209.873 382.693 207.147 380.089L210.285 378.228C212.944 380.767 215.75 383.289 218.631 385.727L215.705 387.779ZM501.723 468.34L501.139 464.986C505.031 465.061 509.001 465.109 512.948 465.132L513.602 468.488C509.607 468.455 505.612 468.406 501.695 468.332L501.723 468.34ZM525.447 468.48L524.722 465.125C528.609 465.097 532.562 465.046 536.474 464.968L537.265 468.32C533.305 468.391 529.331 468.443 525.424 468.473L525.447 468.48ZM199.205 372.027L198.13 370.855C195.977 368.499 193.906 366.092 191.914 363.622L195.427 362.169C197.358 364.554 199.395 366.924 201.468 369.222C201.815 369.607 202.162 369.988 202.516 370.367L199.205 372.027ZM504.889 459.028L500.981 457.175C502.584 454.635 504.158 451.989 505.641 449.327L509.62 451.062C508.086 453.758 506.497 456.437 504.866 459.021L504.889 459.028ZM549.044 468.02L548.187 464.669C552.061 464.546 555.988 464.397 559.871 464.228L560.785 467.574C556.863 467.739 552.911 467.888 549.021 468.013L549.044 468.02ZM185.359 354.953C183.303 352.049 181.331 349.05 179.488 346.04L183.301 345.011C185.104 347.949 187.031 350.878 189.037 353.714L185.359 354.953ZM572.503 467.001L571.528 463.656C575.367 463.444 579.275 463.207 583.141 462.938L584.178 466.283C580.25 466.537 576.312 466.772 572.466 466.99L572.503 467.001ZM513.97 442.961L509.967 441.276C511.037 439.26 512.473 436.517 514.134 433.166L518.166 434.788C516.458 438.159 515.007 440.921 513.933 442.95L513.97 442.961ZM595.795 465.45L594.705 462.116C598.524 461.819 602.402 461.494 606.229 461.154L607.375 464.505C603.496 464.814 599.598 465.141 595.758 465.439L595.795 465.45ZM174.339 336.941C172.754 333.914 171.249 330.804 169.88 327.696L173.911 327.077C175.256 330.11 176.714 333.176 178.272 336.121L174.339 336.941ZM618.922 463.395L617.724 460.067C621.515 459.679 625.363 459.285 629.168 458.863L630.418 462.187C626.555 462.596 622.689 463.003 618.88 463.383L618.922 463.395ZM522.099 426.508L518.009 424.948C519.266 422.193 520.48 419.396 521.634 416.633L525.747 418.117C524.558 420.896 523.33 423.704 522.062 426.497L522.099 426.508ZM641.868 460.857L640.565 457.544C644.336 457.085 648.16 456.601 651.921 456.106L653.271 459.415C649.457 459.902 645.617 460.389 641.831 460.846L641.868 460.857ZM166.079 318.348C164.968 315.256 163.923 312.063 163.006 308.931L167.183 308.706C168.073 311.792 169.084 314.915 170.192 317.93L166.079 318.348ZM664.589 457.866L663.187 454.56C666.923 454.031 670.713 453.473 674.451 452.904L675.901 456.201C672.151 456.759 668.345 457.32 664.593 457.852L664.589 457.866ZM529.087 409.62L524.951 408.213C526.018 405.383 527.045 402.519 527.998 399.697L532.157 401.026C531.198 403.868 530.163 406.76 529.088 409.617L529.087 409.62ZM160.599 299.466C159.918 296.34 159.334 293.159 158.868 290.009L163.126 290.161C163.587 293.246 164.158 296.366 164.821 299.431L160.599 299.466ZM687.155 454.406L685.662 451.119C689.378 450.52 693.105 449.884 696.832 449.247L698.391 452.535C694.663 453.175 690.872 453.804 687.155 454.406ZM709.532 450.541L707.967 447.274C711.628 446.603 715.349 445.904 719.021 445.198L720.652 448.462C716.962 449.177 713.232 449.874 709.532 450.541ZM534.921 392.325L530.734 391.09L531.032 390.079C531.788 387.515 532.505 384.929 533.164 382.386L537.374 383.544C536.707 386.111 535.982 388.725 535.219 391.313L534.921 392.325ZM157.801 280.578C157.552 277.462 157.405 274.308 157.367 271.198L161.655 271.71C161.691 274.759 161.83 277.854 162.076 280.912L157.801 280.578ZM535.283 373.589C535.933 370.633 536.529 367.649 537.041 364.716L541.304 365.691C540.779 368.654 540.182 371.671 539.527 374.664L535.283 373.589ZM157.571 261.897C157.743 258.83 158.023 255.734 158.404 252.695L162.67 253.542C162.295 256.527 162.021 259.564 161.856 262.577L157.571 261.897ZM538.445 355.769C538.853 352.756 539.188 349.718 539.455 346.739L543.731 347.5C543.463 350.516 543.122 353.594 542.714 356.64L538.445 355.769ZM159.875 243.628C160.458 240.637 161.139 237.626 161.952 234.699L166.155 235.878C165.381 238.76 164.693 241.709 164.12 244.647L159.875 243.628ZM540.067 337.634C540.2 334.578 540.254 331.495 540.24 328.475L544.529 328.986C544.55 332.05 544.489 335.173 544.359 338.271L540.067 337.634ZM168.799 227.27L164.644 225.928C165.646 223.046 166.762 220.17 167.961 217.372L172.067 218.881C170.868 221.626 169.777 224.452 168.799 227.27ZM539.925 319.254C539.746 316.159 539.485 313.047 539.153 309.989L543.423 310.239C543.766 313.33 544.032 316.489 544.195 319.625L539.925 319.254ZM175.897 210.713L171.883 209.047C173.301 206.313 174.835 203.599 176.442 200.978L180.369 202.817C178.798 205.367 177.312 208.042 175.906 210.715L175.897 210.713ZM537.878 300.719C537.359 297.61 536.747 294.488 536.064 291.437L540.283 291.378C540.981 294.483 541.606 297.661 542.13 300.821L537.878 300.719ZM185.457 195.167L181.638 193.183C183.47 190.639 185.425 188.128 187.448 185.723L191.146 187.861C189.164 190.228 187.247 192.683 185.454 195.178L185.457 195.167ZM533.674 282.157C532.778 279.058 531.782 275.951 530.705 272.919L534.825 272.526C535.936 275.617 536.94 278.779 537.85 281.935L533.674 282.157ZM197.448 180.912L193.892 178.62C196.145 176.31 198.52 174.054 200.951 171.913L204.351 174.358C201.966 176.464 199.628 178.663 197.444 180.925L197.448 180.912ZM527.148 263.751C525.854 260.7 524.444 257.644 522.96 254.669L526.93 253.912C528.442 256.948 529.882 260.054 531.197 263.175L527.148 263.751ZM211.855 168.238L208.633 165.65C211.295 163.637 214.084 161.692 216.912 159.867L219.936 162.593C217.167 164.386 214.448 166.284 211.846 168.25L211.855 168.238ZM518.178 245.716C516.471 242.758 514.649 239.78 512.744 236.914L516.497 235.78C518.435 238.724 520.299 241.747 522.042 244.769L518.178 245.716ZM228.617 157.468L225.812 154.618C226.747 154.107 227.711 153.597 228.665 153.106C230.8 152.004 233.016 150.936 235.247 149.922L237.814 152.893C235.642 153.88 233.484 154.923 231.403 155.996C230.44 156.484 229.505 156.98 228.59 157.475L228.617 157.468ZM506.703 228.301C504.598 225.478 502.362 222.653 500.076 219.912L503.554 218.407C505.905 221.217 508.19 224.101 510.337 226.986L506.703 228.301ZM247.513 148.897L245.188 145.824C248.559 144.559 252.053 143.394 255.587 142.331L257.66 145.488C254.187 146.531 250.77 147.677 247.485 148.904L247.513 148.897ZM492.822 211.744C490.324 209.068 487.718 206.417 485.069 203.862L488.227 202.018C490.931 204.627 493.596 207.337 496.142 210.068L492.822 211.744ZM268.171 142.679L266.357 139.452C269.987 138.598 273.737 137.833 277.494 137.179L279.055 140.459C275.373 141.098 271.714 141.845 268.171 142.679ZM476.798 196.298C473.96 193.83 471.013 191.395 468.03 189.061L470.809 186.891C473.857 189.277 476.871 191.763 479.754 194.281L476.798 196.298ZM290.204 138.833L288.918 135.513C292.746 135.064 296.669 134.707 300.581 134.456L301.616 137.804C297.782 138.033 293.921 138.401 290.204 138.833ZM458.788 182.198C455.64 179.981 452.377 177.807 449.067 175.727L451.419 173.254C454.779 175.374 458.113 177.596 461.332 179.864L458.788 182.198ZM313.171 137.371L312.41 134.002C316.358 133.954 320.389 134.002 324.387 134.145L324.876 137.494C320.976 137.361 317.037 137.31 313.174 137.361L313.171 137.371ZM438.987 169.701C435.571 167.774 432.048 165.899 428.496 164.125L430.371 161.383C433.981 163.201 437.589 165.112 441.088 167.086L438.987 169.701ZM336.682 138.234L336.461 134.901C340.475 135.249 344.545 135.696 348.562 136.237L348.513 139.54C344.584 139.01 340.602 138.573 336.682 138.234ZM417.713 159.04C414.081 157.434 410.35 155.889 406.628 154.453L408.006 151.493C411.815 152.962 415.632 154.54 419.349 156.186L417.713 159.04ZM360.337 141.419L360.657 138.158C364.662 138.891 368.714 139.728 372.69 140.648L372.105 143.865C368.218 142.952 364.258 142.131 360.337 141.419ZM395.297 150.385C391.498 149.121 387.628 147.931 383.775 146.847L384.625 143.709C388.562 144.813 392.533 146.041 396.412 147.324L395.297 150.385Z" fill="#99E1DD"/>
<path d="M812.658 428.761L808.693 424.009L726.539 405.351L690.563 416.855L701.164 442.185L812.658 428.761Z" fill="#F3F3F3"/>
<path d="M812.66 428.76L810.478 434.552L739.021 479.176L701.262 480.135L702.949 452.729L812.66 428.76Z" fill="#F3F3F3"/>
<path d="M705.88 446.805L701.148 442.182L812.642 428.759L705.88 446.805Z" fill="#EBF2F6"/>
<path d="M705.887 446.806L702.938 452.728L812.65 428.76L705.887 446.806Z" fill="#008984"/>
</svg>
