<svg width="201" height="60" viewBox="0 0 201 60" fill="none" xmlns="http://www.w3.org/2000/svg">
<path d="M54.6995 36.3356V47.3253H48.7969V11.3047H62.7379C71.1841 11.3047 77.2388 16.5438 77.2388 23.8219C77.2388 31.0965 71.1841 36.3356 62.6895 36.3356H54.6995ZM54.6995 16.3399V31.2451H61.7219C67.2167 31.2451 71.1841 28.1417 71.1357 23.8184C71.1357 19.4433 67.2167 16.3399 61.7219 16.3399H54.6995Z" fill="#00B4AC"/>
<path d="M103.135 21.4785H108.681V47.325H103.135V43.4579C100.947 46.5094 97.5394 48.341 93.5203 48.341C85.9381 48.341 80.5469 42.4902 80.5469 34.4C80.5469 26.3098 85.9381 20.459 93.5203 20.459C97.5394 20.459 100.947 22.2906 103.135 25.3421V21.4785ZM103.083 34.4C103.083 29.1609 99.5231 25.3974 94.5881 25.3974C89.6531 25.3974 86.0417 29.1609 86.0417 34.4035C86.0417 39.5942 89.6531 43.4095 94.5881 43.4095C99.5231 43.4095 103.083 39.6426 103.083 34.4Z" fill="#00B4AC"/>
<path d="M116.002 53.48C117.122 53.8878 118.394 54.1919 119.41 54.1919C122.969 54.1919 124.041 50.6323 125.361 47.4253L113.711 21.4785H119.766L127.856 40.5584L134.878 21.4785H140.677L130.551 47.9333C128.312 53.8843 126.024 58.8193 120.529 58.8193C119.054 58.8193 117.326 58.5152 116.002 57.9553V53.48Z" fill="#00B4AC"/>
<path d="M152.837 47.325L143.375 21.4785H149.278L156.704 43.0501L164.183 21.4785H170.134L160.62 47.325H152.837Z" fill="#00B4AC"/>
<path d="M195.267 21.4785H200.814V47.325H195.267V43.4579C193.08 46.5094 189.672 48.341 185.653 48.341C178.071 48.341 172.68 42.4902 172.68 34.4C172.68 26.3098 178.071 20.459 185.653 20.459C189.672 20.459 193.08 22.2906 195.267 25.3421V21.4785ZM195.215 34.4C195.215 29.1609 191.656 25.394 186.721 25.394C181.786 25.394 178.175 29.1574 178.175 34.4C178.175 39.5907 181.786 43.406 186.721 43.406C191.656 43.406 195.215 39.6426 195.215 34.4Z" fill="#00B4AC"/>
<path d="M32.6408 25.2452C35.3191 22.5669 36.9745 18.8726 36.9745 14.7877C36.9745 6.62147 30.353 0 22.1833 0H0V44.3666C0 52.5328 6.62147 59.1578 14.7912 59.1578C22.9574 59.1578 29.5789 52.5363 29.5789 44.3666C29.5789 36.1969 22.9574 29.5789 14.7912 29.5789H22.1833C26.2681 29.5789 29.9659 27.9235 32.6408 25.2452ZM18.8795 22.0036L17.4522 17.2587L17.2621 16.6228C17.2034 16.4223 17.0444 16.2634 16.8405 16.2012L14.7912 15.586L12.1336 14.7877L11.4632 14.5873C11.1763 14.5009 11.0243 14.259 11.0173 14.0101C11.0173 14.0101 11.0173 14.0101 11.0173 14.0067C11.0139 13.9272 11.0243 13.8512 11.0484 13.7751C11.1072 13.6023 11.2351 13.4537 11.4459 13.3846L19.6605 10.6476L23.2062 9.46566C23.7004 9.30323 24.167 9.76977 24.0011 10.2605L22.4943 14.7877L20.0821 22.0209C19.8817 22.6049 19.0557 22.5911 18.8795 22.0036Z" fill="#00B4AC"/>
</svg>
