<svg xmlns="http://www.w3.org/2000/svg" viewBox="0 0 190 100"><rect width="190" height="100" fill="#FFFFFF"/><rect y="0.000" width="190" height="7.692" fill="#B22234"/><rect y="15.385" width="190" height="7.692" fill="#B22234"/><rect y="30.769" width="190" height="7.692" fill="#B22234"/><rect y="46.154" width="190" height="7.692" fill="#B22234"/><rect y="61.538" width="190" height="7.692" fill="#B22234"/><rect y="76.923" width="190" height="7.692" fill="#B22234"/><rect y="92.308" width="190" height="7.692" fill="#B22234"/><rect width="76" height="53.846" fill="#3C3B6E"/><circle cx="6.33" cy="5.38" r="2.1" fill="#FFFFFF"/><circle cx="18.99" cy="5.38" r="2.1" fill="#FFFFFF"/><circle cx="31.65" cy="5.38" r="2.1" fill="#FFFFFF"/><circle cx="44.31" cy="5.38" r="2.1" fill="#FFFFFF"/><circle cx="56.97" cy="5.38" r="2.1" fill="#FFFFFF"/><circle cx="69.63" cy="5.38" r="2.1" fill="#FFFFFF"/><circle cx="12.66" cy="10.77" r="2.1" fill="#FFFFFF"/><circle cx="25.32" cy="10.77" r="2.1" fill="#FFFFFF"/><circle cx="37.98" cy="10.77" r="2.1" fill="#FFFFFF"/><circle cx="50.64" cy="10.77" r="2.1" fill="#FFFFFF"/><circle cx="63.30" cy="10.77" r="2.1" fill="#FFFFFF"/><circle cx="6.33" cy="16.15" r="2.1" fill="#FFFFFF"/><circle cx="18.99" cy="16.15" r="2.1" fill="#FFFFFF"/><circle cx="31.65" cy="16.15" r="2.1" fill="#FFFFFF"/><circle cx="44.31" cy="16.15" r="2.1" fill="#FFFFFF"/><circle cx="56.97" cy="16.15" r="2.1" fill="#FFFFFF"/><circle cx="69.63" cy="16.15" r="2.1" fill="#FFFFFF"/><circle cx="12.66" cy="21.54" r="2.1" fill="#FFFFFF"/><circle cx="25.32" cy="21.54" r="2.1" fill="#FFFFFF"/><circle cx="37.98" cy="21.54" r="2.1" fill="#FFFFFF"/><circle cx="50.64" cy="21.54" r="2.1" fill="#FFFFFF"/><circle cx="63.30" cy="21.54" r="2.1" fill="#FFFFFF"/><circle cx="6.33" cy="26.92" r="2.1" fill="#FFFFFF"/><circle cx="18.99" cy="26.92" r="2.1" fill="#FFFFFF"/><circle cx="31.65" cy="26.92" r="2.1" fill="#FFFFFF"/><circle cx="44.31" cy="26.92" r="2.1" fill="#FFFFFF"/><circle cx="56.97" cy="26.92" r="2.1" fill="#FFFFFF"/><circle cx="69.63" cy="26.92" r="2.1" fill="#FFFFFF"/><circle cx="12.66" cy="32.31" r="2.1" fill="#FFFFFF"/><circle cx="25.32" cy="32.31" r="2.1" fill="#FFFFFF"/><circle cx="37.98" cy="32.31" r="2.1" fill="#FFFFFF"/><circle cx="50.64" cy="32.31" r="2.1" fill="#FFFFFF"/><circle cx="63.30" cy="32.31" r="2.1" fill="#FFFFFF"/><circle cx="6.33" cy="37.69" r="2.1" fill="#FFFFFF"/><circle cx="18.99" cy="37.69" r="2.1" fill="#FFFFFF"/><circle cx="31.65" cy="37.69" r="2.1" fill="#FFFFFF"/><circle cx="44.31" cy="37.69" r="2.1" fill="#FFFFFF"/><circle cx="56.97" cy="37.69" r="2.1" fill="#FFFFFF"/><circle cx="69.63" cy="37.69" r="2.1" fill="#FFFFFF"/><circle cx="12.66" cy="43.08" r="2.1" fill="#FFFFFF"/><circle cx="25.32" cy="43.08" r="2.1" fill="#FFFFFF"/><circle cx="37.98" cy="43.08" r="2.1" fill="#FFFFFF"/><circle cx="50.64" cy="43.08" r="2.1" fill="#FFFFFF"/><circle cx="63.30" cy="43.08" r="2.1" fill="#FFFFFF"/><circle cx="6.33" cy="48.46" r="2.1" fill="#FFFFFF"/><circle cx="18.99" cy="48.46" r="2.1" fill="#FFFFFF"/><circle cx="31.65" cy="48.46" r="2.1" fill="#FFFFFF"/><circle cx="44.31" cy="48.46" r="2.1" fill="#FFFFFF"/><circle cx="56.97" cy="48.46" r="2.1" fill="#FFFFFF"/><circle cx="69.63" cy="48.46" r="2.1" fill="#FFFFFF"/></svg>