<svg width="730" height="378" viewBox="0 0 730 378" fill="none" xmlns="http://www.w3.org/2000/svg">
<path d="M0.111328 377.283L111.644 348.973C134.618 343.142 153.292 326.45 161.654 304.272L172.308 276.015C182.955 247.777 209.979 229.086 240.158 229.086H269.254C295.343 229.086 319.421 215.07 332.306 192.385L337.353 183.499C353.399 155.247 386.279 141.117 417.818 148.92L446.334 155.974C475.398 163.164 505.893 151.752 523.096 127.247L538.322 105.558C550.522 88.1798 569.727 77.0218 590.867 75.0295L644.111 70.0117" stroke="#99E1DD" stroke-width="0.906404" stroke-dasharray="7.25 7.25"/>
<path d="M712.523 20.661L708.37 19.1301L650.799 36.8749L632.607 56.838L648.214 68.7532L712.523 20.661Z" fill="#00B4AC"/>
<path d="M712.524 20.6606L713.238 25.0283L684.873 78.1722L661.814 92.2367L653.081 74.6514L712.524 20.6606Z" fill="#00B4AC"/>
<path d="M652.787 69.9311L648.205 68.7539L712.515 20.6618L652.787 69.9311Z" fill="#CCF0EE"/>
<path d="M652.799 69.9291L653.084 74.6505L712.527 20.6597L652.799 69.9291Z" fill="#E6F9F7"/>
</svg>
